<svg width="299" height="61" viewBox="0 0 299 61" fill="none" xmlns="http://www.w3.org/2000/svg">
<path d="M98.2897 9.15798L90.2375 16.541L96.8283 23.7291L104.88 16.346L98.2897 9.15798Z" fill="#D0322C"/>
<path d="M88.1328 18.4641L50.6765 52.808L57.2672 59.996L94.7235 25.6522L88.1328 18.4641Z" fill="#D0322C"/>
<path d="M76.276 9.15798L68.2239 16.541L74.8146 23.7291L82.8668 16.346L76.276 9.15798Z" fill="#D0322C"/>
<path d="M66.1191 18.4641L28.6628 52.808L35.2536 59.996L72.7099 25.6522L66.1191 18.4641Z" fill="#D0322C"/>
<path d="M54.2626 9.15798L46.2104 16.541L52.8012 23.7291L60.8533 16.346L54.2626 9.15798Z" fill="#D0322C"/>
<path d="M44.1057 18.4641L6.64941 52.808L13.2401 59.996L50.6964 25.6522L44.1057 18.4641Z" fill="#D0322C"/>
<path d="M113.959 48.0528H108.407V46.564H121.922V48.0528H116.342V60.0901H113.959V48.0528Z" fill="#231F20" stroke="#231F20"/>
<path d="M125.846 46.7486C127.035 46.564 128.743 46.4659 130.364 46.4659C132.88 46.4659 134.508 46.8063 135.644 47.568C136.568 48.1682 137.081 49.0914 137.081 50.1359C137.081 51.9247 135.564 53.1019 133.642 53.5867V53.6444C135.05 54.0079 135.887 54.9716 136.319 56.3738C136.914 58.2608 137.347 59.5649 137.727 60.0842H135.287C134.986 59.6861 134.583 58.5377 134.069 56.8528C133.527 54.9889 132.551 54.2849 130.41 54.2272H128.189V60.0842H125.834V46.7486H125.846ZM128.2 52.9057H130.612C133.128 52.9057 134.727 51.8844 134.727 50.3379C134.727 48.5894 133.019 47.8335 130.532 47.8104C129.395 47.8104 128.581 47.8912 128.2 47.972V52.9057Z" fill="#231F20" stroke="#231F20"/>
<path d="M145.391 55.8372L143.498 60.0901H141.063L147.266 46.5698H150.111L156.337 60.0901H153.816L151.865 55.8372H145.396H145.391ZM151.375 54.4696L149.586 50.5803C149.182 49.6974 148.911 48.8953 148.639 48.1105H148.582C148.31 48.9126 148.016 49.7378 147.658 50.5572L145.875 54.4696H151.375Z" fill="#231F20" stroke="#231F20"/>
<path d="M163.262 46.5698V60.0901H160.907V46.5698H163.262Z" fill="#231F20" stroke="#231F20"/>
<path d="M169.275 46.5698H171.629V58.6244H179.425V60.0901H169.275V46.5698Z" fill="#231F20" stroke="#231F20"/>
<path d="M193.395 53.7483H186.303V58.6244H194.209V60.0901H183.949V46.5698H193.805V48.0355H186.303V52.3057H193.395V53.7483Z" fill="#231F20" stroke="#231F20"/>
<path d="M199.16 46.7486C200.349 46.564 202.057 46.4659 203.684 46.4659C206.2 46.4659 207.827 46.8063 208.964 47.568C209.882 48.1682 210.401 49.0914 210.401 50.1359C210.401 51.9247 208.883 53.1019 206.962 53.5867V53.6444C208.37 54.0079 209.207 54.9716 209.639 56.3738C210.234 58.2608 210.672 59.5649 211.047 60.0842H208.612C208.312 59.6861 207.908 58.5377 207.395 56.8528C206.852 54.9889 205.877 54.2849 203.736 54.2272H201.515V60.0842H199.16V46.7486ZM201.52 52.9057H203.932C206.448 52.9057 208.047 51.8844 208.047 50.3379C208.047 48.5894 206.339 47.8335 203.852 47.8104C202.715 47.8104 201.901 47.8912 201.52 47.972V52.9057Z" fill="#231F20" stroke="#231F20"/>
<path d="M222.934 57.9607C223.99 58.4455 225.531 58.8436 227.158 58.8436C229.571 58.8436 230.979 57.8973 230.979 56.5354C230.979 55.2717 230.003 54.5504 227.539 53.8464C224.562 53.0674 222.721 51.9248 222.721 50.0148C222.721 47.9085 225.075 46.3447 228.624 46.3447C230.494 46.3447 231.844 46.6621 232.658 47.0083L232.006 48.4336C231.411 48.1913 230.194 47.7931 228.543 47.7931C226.051 47.7931 225.104 48.8953 225.104 49.8186C225.104 51.0823 226.212 51.6997 228.734 52.4268C231.821 53.3097 233.391 54.4119 233.391 56.3969C233.391 58.4801 231.307 60.3093 226.997 60.3093C225.243 60.3093 223.315 59.9054 222.34 59.4265L222.94 57.9607H222.934Z" fill="#231F20" stroke="#231F20"/>
<path d="M241.452 55.8372L239.559 60.0901H237.124L243.328 46.5698H246.167L252.393 60.0901H249.871L247.921 55.8372H241.452ZM247.442 54.4696L245.653 50.5803C245.243 49.6974 244.978 48.8953 244.707 48.1105H244.655C244.384 48.9126 244.083 49.7378 243.731 50.5572L241.943 54.4696H247.442Z" fill="#231F20" stroke="#231F20"/>
<path d="M256.969 46.5698H259.323V58.6244H267.119V60.0901H256.963V46.5698H256.969Z" fill="#231F20" stroke="#231F20"/>
<path d="M281.095 53.7483H274.004V58.6244H281.909V60.0901H271.649V46.5698H281.505V48.0355H274.004V52.3057H281.095V53.7483Z" fill="#231F20" stroke="#231F20"/>
<path d="M286.537 57.9607C287.593 58.4455 289.134 58.8436 290.761 58.8436C293.168 58.8436 294.576 57.8973 294.576 56.5354C294.576 55.2717 293.6 54.5504 291.136 53.8464C288.159 53.0674 286.318 51.9248 286.318 50.0148C286.318 47.9085 288.672 46.3447 292.221 46.3447C294.091 46.3447 295.441 46.6621 296.255 47.0083L295.608 48.4336C295.014 48.1913 293.797 47.7931 292.14 47.7931C289.653 47.7931 288.701 48.8953 288.701 49.8186C288.701 51.0823 289.815 51.6997 292.331 52.4268C295.418 53.3097 296.988 54.4119 296.988 56.3969C296.988 58.4801 294.904 60.3093 290.6 60.3093C288.84 60.3093 286.918 59.9054 285.943 59.4265L286.537 57.9607Z" fill="#231F20" stroke="#231F20"/>
<path d="M298.845 37.8809H108.407V43.4547H298.845V37.8809Z" fill="#D0322C"/>
<path d="M124.338 1H128.801V35.0831H119.309C115.989 35.0831 113.344 34.0323 111.369 31.9363C109.395 29.8404 108.407 27.0286 108.407 23.495C108.407 20.1923 109.447 17.4786 111.52 15.348C113.592 13.2175 116.243 12.1551 119.459 12.1551C120.954 12.1551 122.582 12.4727 124.338 13.1078V1.00578V1ZM124.338 31.2781V17.0571C122.958 16.3585 121.555 16.0063 120.14 16.0063C117.929 16.0063 116.168 16.728 114.857 18.1772C113.546 19.6265 112.894 21.578 112.894 24.0319C112.894 26.3415 113.465 28.1198 114.603 29.3727C115.284 30.1234 116.012 30.6257 116.774 30.8855C117.536 31.1453 118.91 31.2781 120.896 31.2781H124.338Z" fill="#231F20" stroke="#231F20"/>
<path d="M147.56 12.5882C150.978 12.5882 153.813 13.691 156.076 15.8966C158.334 18.1022 159.466 20.8679 159.466 24.1994C159.466 27.5309 158.317 30.1234 156.024 32.2655C153.732 34.4018 150.845 35.47 147.364 35.47C143.882 35.47 141.186 34.3845 138.922 32.2135C136.665 30.0425 135.533 27.3288 135.533 24.0781C135.533 20.8275 136.676 18.056 138.963 15.8677C141.249 13.6794 144.113 12.5882 147.56 12.5882ZM147.317 16.5894C145.187 16.5894 143.437 17.2881 142.075 18.6854C140.706 20.0826 140.025 21.8668 140.025 24.0262C140.025 26.1856 140.724 27.9235 142.121 29.2862C143.518 30.643 145.314 31.3243 147.514 31.3243C149.714 31.3243 151.48 30.6373 152.866 29.2631C154.258 27.8889 154.95 26.1279 154.95 23.98C154.95 21.8321 154.229 20.0884 152.779 18.6854C151.33 17.2881 149.511 16.5894 147.317 16.5894Z" fill="#231F20" stroke="#231F20"/>
<path d="M183.225 29.8347V34.2286C180.996 35.06 178.819 35.4758 176.689 35.4758C173.178 35.4758 170.372 34.4365 168.282 32.3521C166.192 30.2677 165.147 27.4847 165.147 23.9858C165.147 20.4868 166.163 17.6114 168.196 15.4462C170.228 13.2868 172.907 12.2013 176.221 12.2013C177.376 12.2013 178.415 12.311 179.333 12.5304C180.251 12.7498 181.389 13.1598 182.734 13.7603V18.4948C180.488 17.0629 178.41 16.347 176.487 16.347C174.564 16.347 172.844 17.0514 171.562 18.4602C170.28 19.8632 169.633 21.6589 169.633 23.8414C169.633 26.1336 170.326 27.9582 171.718 29.3035C173.109 30.6546 174.986 31.3301 177.341 31.3301C179.05 31.3301 181.008 30.8336 183.219 29.8405L183.225 29.8347Z" fill="#231F20" stroke="#231F20"/>
<path d="M190.275 1H194.715V35.0831H190.275V1ZM204.883 12.6401H210.154L200.575 23.6162L212.106 35.0831H206.147L194.906 23.6278L204.883 12.6343V12.6401Z" fill="#231F20" stroke="#231F20"/>
<path d="M215.108 33.4722V28.6915C216.361 29.5691 217.643 30.2793 218.954 30.8278C220.259 31.3706 221.367 31.6419 222.256 31.6419C223.146 31.6419 223.983 31.4167 224.647 30.9606C225.317 30.5045 225.646 29.9617 225.646 29.3266C225.646 28.6915 225.432 28.1372 224.999 27.7041C224.566 27.2711 223.636 26.6533 222.204 25.8334C219.341 24.2398 217.47 22.8772 216.581 21.7455C215.692 20.6139 215.253 19.384 215.253 18.0503C215.253 16.3296 215.923 14.9208 217.268 13.8296C218.607 12.7383 220.34 12.1956 222.453 12.1956C224.566 12.1956 226.904 12.8134 229.208 14.049V18.4429C226.575 16.8493 224.422 16.0525 222.741 16.0525C221.881 16.0525 221.182 16.2373 220.657 16.601C220.126 16.9648 219.866 17.4555 219.866 18.056C219.866 18.5757 220.109 19.0722 220.588 19.5457C221.067 20.0191 221.91 20.585 223.111 21.2547L224.699 22.1555C228.44 24.2687 230.311 26.6129 230.311 29.1823C230.311 31.0183 229.595 32.5253 228.152 33.709C226.714 34.8868 224.86 35.4758 222.597 35.4758C221.263 35.4758 220.08 35.3314 219.035 35.0485C217.995 34.7656 216.685 34.2402 215.108 33.4722Z" fill="#231F20" stroke="#231F20"/>
<path d="M239.722 3.19406C240.456 3.19406 241.079 3.44811 241.599 3.95044C242.119 4.45854 242.378 5.07057 242.378 5.80385C242.378 6.53713 242.119 7.13761 241.599 7.65726C241.079 8.1769 240.45 8.43673 239.722 8.43673C239.041 8.43673 238.441 8.17113 237.915 7.64571C237.396 7.11452 237.136 6.50249 237.136 5.80385C237.136 5.10521 237.396 4.51628 237.915 3.98508C238.435 3.45388 239.035 3.18829 239.722 3.18829V3.19406ZM237.523 12.6401H241.963V35.0831H237.523V12.6401Z" fill="#231F20" stroke="#231F20"/>
<path d="M265.358 1H269.821V35.0831H260.329C257.009 35.0831 254.365 34.0323 252.39 31.9363C250.415 29.8404 249.428 27.0286 249.428 23.495C249.428 20.1923 250.467 17.4786 252.54 15.348C254.613 13.2175 257.257 12.1551 260.479 12.1551C261.975 12.1551 263.603 12.4727 265.358 13.1078V1.00578V1ZM265.358 31.2781V17.0571C263.978 16.3585 262.575 16.0063 261.16 16.0063C258.949 16.0063 257.188 16.728 255.877 18.1772C254.567 19.6265 253.914 21.578 253.914 24.0319C253.914 26.3415 254.486 28.1198 255.623 29.3727C256.305 30.1234 257.032 30.6257 257.794 30.8855C258.562 31.1453 259.936 31.2781 261.917 31.2781H265.358Z" fill="#231F20" stroke="#231F20"/>
<path d="M296.976 24.2513H281.19C281.306 26.3992 282.022 28.1083 283.35 29.3727C284.678 30.643 286.387 31.2723 288.488 31.2723C291.416 31.2723 294.112 30.3601 296.589 28.5413V32.8832C295.221 33.7955 293.87 34.4422 292.524 34.8348C291.185 35.2274 289.608 35.418 287.807 35.418C285.336 35.418 283.332 34.9041 281.808 33.8821C280.278 32.8544 279.054 31.4802 278.136 29.748C277.218 28.0159 276.756 26.0124 276.756 23.7317C276.756 20.3136 277.72 17.5363 279.66 15.4C281.594 13.2579 284.106 12.1897 287.201 12.1897C290.296 12.1897 292.553 13.229 294.326 15.3134C296.098 17.3978 296.987 20.1865 296.987 23.6797V24.2398L296.976 24.2513ZM281.288 21.5896H292.582C292.467 19.817 291.935 18.4544 290.994 17.4901C290.053 16.5317 288.783 16.0524 287.189 16.0524C285.596 16.0524 284.291 16.5317 283.275 17.4901C282.258 18.4486 281.594 19.817 281.288 21.5896Z" fill="#231F20" stroke="#231F20"/>
</svg>
